<svg xmlns="http://www.w3.org/2000/svg" viewBox="0 0 1332.3 512.2" enable-background="new 0 0 1332.3 512.2"><defs><filter id="a" filterUnits="userSpaceOnUse" x="0" y="0" width="1332.2" height="512.2"><feFlood result="back" flood-color="#fff" flood-opacity="1"/><feBlend in="SourceGraphic" in2="back"/></filter></defs><mask maskUnits="userSpaceOnUse" x="0" y="0" width="1332.2" height="512.2" id="c"><g filter="url(#a)"><linearGradient id="b" gradientUnits="userSpaceOnUse" x1="665.011" y1="-41.208" x2="665.011" y2="482.208"><stop offset="0" stop-color="gray"/><stop offset=".53" stop-color="#C5C6C3"/><stop offset="1" stop-color="gray"/></linearGradient><path fill="url(#b)" d="M-7-43.9h1344v526.7H-7z"/></g></mask><g opacity=".5" mask="url(#c)"><g fill="none" stroke="#7ED0E0" stroke-width=".25" stroke-linecap="square" stroke-miterlimit="10"><path d="M.1.1h12.5"/><path stroke-dasharray="25.2317,75.695" d="M19.7.1h63.1"/><path stroke-dasharray="25.2317,7.0649,25.2317,75.695" d="M120.6.1h1161.2"/><path d="M1319.6.1h12.5"/></g><g fill="none" stroke="#7ED0E0" stroke-width=".25" stroke-linecap="square" stroke-miterlimit="10"><path d="M.1 46.7h12.5"/><path stroke-dasharray="25.2317,75.695" d="M19.7 46.7h63.1"/><path stroke-dasharray="25.2317,7.0649,25.2317,75.695" d="M120.6 46.7h1161.2"/><path d="M1319.6 46.7h12.5"/></g><g fill="none" stroke="#7ED0E0" stroke-width=".25" stroke-linecap="square" stroke-miterlimit="10"><path d="M.1 93.2h12.5"/><path stroke-dasharray="25.2317,75.695" d="M19.7 93.2h63.1"/><path stroke-dasharray="25.2317,7.0649,25.2317,75.695" d="M120.6 93.2h1161.2"/><path d="M1319.6 93.2h12.5"/></g><g fill="none" stroke="#7ED0E0" stroke-width=".25" stroke-linecap="square" stroke-miterlimit="10"><path d="M.1 139.8h12.5"/><path stroke-dasharray="25.2317,75.695" d="M19.7 139.8h63.1"/><path stroke-dasharray="25.2317,7.0649,25.2317,75.695" d="M120.6 139.8h1161.2"/><path d="M1319.6 139.8h12.5"/></g><g fill="none" stroke="#7ED0E0" stroke-width=".25" stroke-linecap="square" stroke-miterlimit="10"><path d="M.1 186.3h12.5"/><path stroke-dasharray="25.2317,75.695" d="M19.7 186.3h63.1"/><path stroke-dasharray="25.2317,7.0649,25.2317,75.695" d="M120.6 186.3h1161.2"/><path d="M1319.6 186.3h12.5"/></g><g fill="none" stroke="#7ED0E0" stroke-width=".25" stroke-linecap="square" stroke-miterlimit="10"><path d="M.1 232.9h12.5"/><path stroke-dasharray="25.2317,75.695" d="M19.7 232.9h63.1"/><path stroke-dasharray="25.2317,7.0649,25.2317,75.695" d="M120.6 232.9h1161.2"/><path d="M1319.6 232.9h12.5"/></g><g fill="none" stroke="#7ED0E0" stroke-width=".25" stroke-linecap="square" stroke-miterlimit="10"><path d="M.1 279.4h12.5"/><path stroke-dasharray="25.2317,75.695" d="M19.7 279.4h63.1"/><path stroke-dasharray="25.2317,7.0649,25.2317,75.695" d="M120.6 279.4h1161.2"/><path d="M1319.6 279.4h12.5"/></g><g fill="none" stroke="#7ED0E0" stroke-width=".25" stroke-linecap="square" stroke-miterlimit="10"><path d="M.1 325.9h12.5"/><path stroke-dasharray="25.2317,75.695" d="M19.7 325.9h63.1"/><path stroke-dasharray="25.2317,7.0649,25.2317,75.695" d="M120.6 325.9h1161.2"/><path d="M1319.6 325.9h12.5"/></g><g fill="none" stroke="#7ED0E0" stroke-width=".25" stroke-linecap="square" stroke-miterlimit="10"><path d="M.1 372.5h12.5"/><path stroke-dasharray="25.2317,75.695" d="M19.7 372.5h63.1"/><path stroke-dasharray="25.2317,7.0649,25.2317,75.695" d="M120.6 372.5h1161.2"/><path d="M1319.6 372.5h12.5"/></g><g fill="none" stroke="#7ED0E0" stroke-width=".25" stroke-linecap="square" stroke-miterlimit="10"><path d="M.1 419h12.5"/><path stroke-dasharray="25.2317,75.695" d="M19.7 419h63.1"/><path stroke-dasharray="25.2317,7.0649,25.2317,75.695" d="M120.6 419h1161.2"/><path d="M1319.6 419h12.5"/></g><g fill="none" stroke="#7ED0E0" stroke-width=".25" stroke-linecap="square" stroke-miterlimit="10"><path d="M.1 465.6h12.5"/><path stroke-dasharray="25.2317,75.695" d="M19.7 465.6h63.1"/><path stroke-dasharray="25.2317,7.0649,25.2317,75.695" d="M120.6 465.6h1161.2"/><path d="M1319.6 465.6h12.5"/></g><g fill="none" stroke="#7ED0E0" stroke-width=".25" stroke-linecap="square" stroke-miterlimit="10"><path d="M.1 512.1h12.5"/><path stroke-dasharray="25.2317,75.695" d="M19.7 512.1h63.1"/><path stroke-dasharray="25.2317,7.0649,25.2317,75.695" d="M120.6 512.1h1161.2"/><path d="M1319.6 512.1h12.5"/></g></g></svg>