<svg xmlns="http://www.w3.org/2000/svg" xmlns:xlink="http://www.w3.org/1999/xlink" id="Layer_1" x="0" y="0" enable-background="new 0 0 70.3 31.2" version="1.1" viewBox="0 0 70.3 31.2" xml:space="preserve"><g><g><g><line x1="47.3" x2="62.2" y1="15.6" y2="15.6" fill="none" stroke="#7ED0E0" stroke-miterlimit="10" stroke-width="1.2"/><line x1="54.7" x2="54.7" y1="8.1" y2="23.1" fill="none" stroke="#7ED0E0" stroke-miterlimit="10" stroke-width="1.2"/></g><path fill="none" stroke="#7ED0E0" stroke-miterlimit="10" stroke-width="1.2" d="M66.7,30.6h-24c-1.7,0-3-1.3-3-3v-24 c0-1.6,1.3-3,3-3h24c1.7,0,3,1.4,3,3v24C69.7,29.2,68.4,30.6,66.7,30.6z"/></g><path fill="#7ED0E0" stroke="#7ED0E0" stroke-miterlimit="10" stroke-width=".733" d="M27.4,30.6h-24 c-1.7,0-3-1.4-3-3v-24c0-1.7,1.3-3,3-3h24c1.6,0,3,1.4,3,3v24C30.4,29.2,29,30.6,27.4,30.6z" opacity=".9"/><g><g><line x1="7.9" x2="22.8" y1="15.6" y2="15.6" fill="none" stroke="#14252C" stroke-miterlimit="10" stroke-width=".878"/></g></g></g></svg>